<svg width="601" height="148" viewBox="0 0 601 148" fill="none" xmlns="http://www.w3.org/2000/svg">
<g clip-path="url(#clip0)">
<path d="M230 43.1C237.9 43.1 246.3 45.7 252.1 51.4L245.4 62.3C241.6 59 235.9 56.3 230.7 56.3C218.9 56.3 214.1 64.6 214.1 73.1C214.1 81.8 219.4 90.8 230.7 90.8C236.5 90.8 242.3 87.6 246.3 83.6L253.7 94.1C252.9 94.9 252.1 95.7 251.2 96.5C245.3 101.5 237.7 104.1 230 104C211.1 104 199.1 90.9 199.1 73.5C199.1 56.1 211.8 43.1 230 43.1Z" fill="#F0F0F5"/>
<path d="M285.7 43.1C304 43.1 316.5 56.3 316.5 73.1C316.5 90.4 304 103.9 285.7 103.9C267.4 103.9 254.9 90.4 254.9 73.1C255 56.2 267.5 43.1 285.7 43.1ZM285.7 90.7C295 90.7 301.6 83.1 301.6 73.1C301.6 63.5 295 56.2 285.7 56.2C276.4 56.2 269.8 63.4 269.8 73.1C269.9 83.2 276.4 90.7 285.7 90.7Z" fill="#F0F0F5"/>
<path d="M325.1 44.1H340L355.8 72C357.6 75.3 359.2 78.7 360.6 82.1H360.8C360.8 82.1 360.1 75.7 360.1 72V44.1H374.1V103.1H359.7L343.5 76C341.7 72.8 340.1 69.5 338.6 66.1H338.4C338.4 66.1 339.1 72.3 339.1 76V103.1H325.1V44.1Z" fill="#F0F0F5"/>
<path d="M401.1 56.1H383.1V44.1H433.1V56.1H415.1V103.1H401.1V56.1Z" fill="#F0F0F5"/>
<path d="M451.4 44.1H466.6L486.7 103.1H471.5L468 91.1H450.1L446.7 103.1H431.5L451.4 44.1ZM464.8 79.1L461.4 67.4C460.3 63.6 458.9 57.1 458.9 57.1H458.7C458.7 57.1 457.4 63.6 456.2 67.4L452.7 79.1H464.8Z" fill="#F0F0F5"/>
<path d="M519.6 43.1C527.5 43.1 535.9 45.7 541.7 51.4L535 62.3C531.2 59 525.5 56.3 520.3 56.3C508.5 56.3 503.7 64.6 503.7 73.1C503.7 81.8 509 90.8 520.3 90.8C526.1 90.8 531.9 87.6 535.9 83.6L543.3 94.1C537.1 100.5 528.5 104.1 519.6 104C500.7 104 488.7 90.9 488.7 73.5C488.7 56.1 501.4 43.1 519.6 43.1Z" fill="#F0F0F5"/>
<path d="M568.1 56.1H550.1V44.1H600.1V56.1H582.1V103.1H568.1V56.1Z" fill="#F0F0F5"/>
<path d="M146.7 53.1C145.3 47.3 139.4 43.7 133.6 45.1C127.8 46.5 124.2 52.4 125.6 58.2C125.6 58.4 125.7 58.5 125.7 58.7C133.3 86.9 116.5 115.9 88.3 123.5C83.8 124.7 79.3 125.3 74.6 125.3C71.9 125.3 69.2 125.1 66.5 124.7C81.4 121.3 90.7 106.5 87.3 91.7C83.9 76.9 69.1 67.5 54.3 70.9C41.7 73.8 32.8 84.9 32.8 97.8C32.8 100.7 33.3 103.5 34.1 106.3C15.4 83.9 18.4 50.7 40.7 32C46.6 27 53.6 23.4 61.1 21.4C66.9 19.9 70.3 14 68.8 8.2V8.1C67.3 2.3 61.4 -1.1 55.6 0.400004H55.5C15.8 11.1 -7.7 51.9 3 91.5C13.7 131.1 54.5 154.7 94.1 144C133.7 133.4 157.2 92.7 146.7 53.1Z" fill="#4C84FF"/>
<path d="M103.3 41.3C113.241 41.3 121.3 33.2411 121.3 23.3C121.3 13.3589 113.241 5.29999 103.3 5.29999C93.3589 5.29999 85.3 13.3589 85.3 23.3C85.3 33.2411 93.3589 41.3 103.3 41.3Z" fill="#4C84FF"/>
</g>
<defs>
<clipPath id="clip0">
<rect width="600.1" height="147.2" fill="white"/>
</clipPath>
</defs>
</svg>
