<svg width="150" height="147" viewBox="0 0 150 147" fill="none" xmlns="http://www.w3.org/2000/svg">
<path d="M146.7 53.1C145.3 47.3 139.4 43.7 133.6 45.1C127.8 46.5 124.2 52.4 125.6 58.2C125.6 58.4 125.7 58.5 125.7 58.7C133.3 86.9 116.5 115.9 88.3 123.5C83.8 124.7 79.3 125.3 74.6 125.3C71.9 125.3 69.2 125.1 66.5 124.7C81.4 121.3 90.7 106.5 87.3 91.7C83.9 76.9 69.1 67.5 54.3 70.9C41.7 73.8 32.8 84.9 32.8 97.8C32.8 100.7 33.3 103.5 34.1 106.3C15.4 83.9 18.4 50.7 40.7 32C46.6 27 53.6 23.4 61.1 21.4C66.9 19.9 70.3 14 68.8 8.2V8.1C67.3 2.3 61.4 -1.1 55.6 0.399997H55.5C15.8 11.1 -7.7 51.9 3 91.5C13.7 131.1 54.5 154.7 94.1 144C133.7 133.4 157.2 92.7 146.7 53.1Z" fill="#4C84FF"/>
<path d="M103.3 41.3C113.241 41.3 121.3 33.2411 121.3 23.3C121.3 13.3589 113.241 5.3 103.3 5.3C93.3589 5.3 85.3 13.3589 85.3 23.3C85.3 33.2411 93.3589 41.3 103.3 41.3Z" fill="#4C84FF"/>
</svg>
